<?xml version="1.0" standalone="no"?><!DOCTYPE svg PUBLIC "-//W3C//DTD SVG 1.1//EN" "http://www.w3.org/Graphics/SVG/1.1/DTD/svg11.dtd"><svg t="1550720088464" class="icon" style="" viewBox="0 0 1024 1024" version="1.1" xmlns="http://www.w3.org/2000/svg" p-id="16511" xmlns:xlink="http://www.w3.org/1999/xlink" width="200" height="200"><defs><style type="text/css"></style></defs><path d="M836.608 229.376c-52.224 0-95.232 42.496-95.232 94.72 0 26.624 11.264 50.688 28.672 68.096L660.48 526.848c-15.36-11.264-34.816-17.92-55.296-17.92-29.696 0-55.808 13.312-73.728 34.816l-61.44-83.968c24.576-17.408 40.448-45.568 40.448-77.824 0-52.224-42.496-94.72-95.232-94.72s-95.232 42.496-95.232 94.72c0 5.12 0.512 10.24 1.024 15.36L227.328 466.944c-17.408-17.92-41.472-29.184-68.608-29.184-52.224 0-95.232 42.496-95.232 94.72s42.496 94.72 95.232 94.72c52.224 0 95.232-42.496 95.232-94.72 0-13.312-2.56-25.6-7.68-36.864l87.552-64.512c16.896 27.648 46.592 45.568 81.408 45.568 7.68 0 15.36-1.024 22.528-2.56l75.776 103.936c-2.56 8.192-3.584 16.896-3.584 26.112 0 52.224 42.496 94.72 95.232 94.72 52.224 0 95.232-42.496 95.232-94.72 0-19.456-5.632-37.376-15.872-52.224l114.688-140.288c11.264 5.12 24.064 7.68 37.376 7.68 52.736 0 95.232-42.496 95.232-94.72 0-52.736-42.496-95.232-95.232-95.232zM159.232 576c-24.064 0-43.52-19.456-43.52-43.52s19.456-43.52 43.52-43.52 43.52 19.456 43.52 43.52-19.456 43.52-43.52 43.52z m212.48-194.048c0-24.064 19.456-43.52 43.52-43.52s43.52 19.456 43.52 43.52-19.456 43.52-43.52 43.52-43.52-19.456-43.52-43.52z m233.984 266.24c-24.064 0-43.52-19.456-43.52-43.52s19.456-43.52 43.52-43.52 43.52 19.456 43.52 43.52-19.456 43.52-43.52 43.52z m230.912-280.064c-24.064 0-43.52-19.456-43.52-43.52s19.456-43.52 43.52-43.52 43.52 19.456 43.52 43.52c0.512 24.064-18.944 43.52-43.52 43.52z" fill="" p-id="16512"></path></svg>