<?xml version="1.0" standalone="no"?><!DOCTYPE svg PUBLIC "-//W3C//DTD SVG 1.1//EN" "http://www.w3.org/Graphics/SVG/1.1/DTD/svg11.dtd"><svg t="1554091183901" class="icon" style="" viewBox="0 0 1024 1024" version="1.1" xmlns="http://www.w3.org/2000/svg" p-id="9192" xmlns:xlink="http://www.w3.org/1999/xlink" width="200" height="200"><defs><style type="text/css"></style></defs><path d="M878.252545 532.348444H145.746432c-44.946678 0-81.434707 36.436864-81.434707 81.382518v244.224304c0 44.906769 36.459377 81.382519 81.434707 81.382519h732.506113c44.946678 0 81.434707-36.436864 81.434707-81.382519V613.730962c0-44.906769-36.459377-81.382519-81.434707-81.382518zM578.141396 771.543198H415.158395c-11.186783 0-20.255323-9.032724-20.255323-20.349467 0-11.238972 9.272177-20.349467 20.255323-20.349467H578.141396c11.186783 0 20.255323 9.032724 20.255323 20.349467 0 11.238972-9.272177 20.349467-20.255323 20.349467zM878.252545 84.661192H145.746432c-44.946678 0-81.434707 36.436864-81.434707 81.382518v244.224304c0 44.906769 36.459377 81.382519 81.434707 81.382519h732.506113c44.946678 0 81.434707-36.436864 81.434707-81.382519V166.04371c0-44.906769-36.459377-81.382519-81.434707-81.382518zM578.141396 323.854922H415.158395c-11.186783 0-20.255323-9.031701-20.255323-20.349467 0-11.238972 9.272177-20.349467 20.255323-20.349467H578.141396c11.186783 0 20.255323 9.032724 20.255323 20.349467 0 11.238972-9.272177 20.349467-20.255323 20.349467z" p-id="9193"></path></svg>