<?xml version="1.0" standalone="no"?><!DOCTYPE svg PUBLIC "-//W3C//DTD SVG 1.1//EN" "http://www.w3.org/Graphics/SVG/1.1/DTD/svg11.dtd"><svg t="1551767978461" class="icon" style="" viewBox="0 0 1024 1024" version="1.1" xmlns="http://www.w3.org/2000/svg" p-id="4017" xmlns:xlink="http://www.w3.org/1999/xlink" width="200" height="200"><defs><style type="text/css"></style></defs><path d="M875.1104 792.32l-91.409067-310.101333a25.9584 25.9584 0 0 0-24.763733-18.517334H741.034667l-0.221867-0.3584-5.6832-4.2496 0.733867-3.618133 0.273066-1.3312v-68.266667h30.020267v-19.9168h3.9936a18.602667 18.602667 0 0 0 18.158933-13.909333 19.336533 19.336533 0 0 0 0.6656-4.488533v-17.851734h-6.690133V332.8a19.541333 19.541333 0 0 0-2.696533-1.8944c-21.060267-12.253867-56.32-38.212267-56.32-74.5472v-13.653333h-18.773334V222.037333H322.781867v20.6336H297.984v13.653334c0 36.317867-35.328 62.293333-56.32 74.5472A19.490133 19.490133 0 0 0 238.933333 332.8v-3.6352h-6.690133v17.851733a19.2512 19.2512 0 0 0 0.6656 5.12 18.602667 18.602667 0 0 0 18.158933 13.909334H261.12v20.0192h26.9312V428.373333h-8.533333l-0.768 35.362134h-30.72a25.9584 25.9584 0 0 0-24.763734 18.517333L131.908267 792.149333h-4.010667v17.425067a25.770667 25.770667 0 0 0 25.787733 25.6h699.528534a25.770667 25.770667 0 0 0 25.719466-25.429333v-17.425067zM774.826667 349.422933l0.1536-0.341333z m0.221866-0.546133a5.358933 5.358933 0 0 0 0.256-0.9728 5.376 5.376 0 0 1-0.324266 0.9728z m0.273067-1.058133a5.290667 5.290667 0 0 0 0-0.938667 5.12 5.12 0 0 1-0.068267 0.938667z m-529.373867-0.938667a5.358933 5.358933 0 0 0 1.297067 3.720533 5.358933 5.358933 0 0 1-1.3824-3.720533z" fill="#996E28" p-id="4018"></path><path d="M864.887467 788.872533l-94.293334-319.863466a12.151467 12.151467 0 0 0-11.656533-8.721067h-29.6448l-9.813333-9.728 3.003733-14.865067v-80.452266h30.020267v-20.002134H274.773333v20.0192h26.9312v80.520534l-4.096 24.507733h-49.595733a12.151467 12.151467 0 0 0-11.656533 8.721067L142.062933 788.872533a12.151467 12.151467 0 0 0 11.656534 15.598934h699.4944a12.151467 12.151467 0 0 0 11.6736-15.598934z" fill="#AF3131" p-id="4019"></path><path d="M752.503467 335.240533v20.0192h-30.037334v80.520534l-2.986666 14.779733 9.813333 9.642667h29.6448a12.151467 12.151467 0 0 1 11.656533 8.721066l94.276267 319.880534a12.151467 12.151467 0 0 1-11.656533 15.598933H153.736533a12.151467 12.151467 0 0 1-11.656533-15.598933l94.276267-319.880534a12.151467 12.151467 0 0 1 11.656533-8.721066h49.595733l4.096-24.507734v-80.452266H274.773333v-20.002134h477.730134m13.653333-13.653333H261.12v47.325867h26.9312v65.7408l-1.9968 11.946666h-38.0416a25.9584 25.9584 0 0 0-24.763733 18.517334L128.9728 785.066667a25.8048 25.8048 0 0 0 24.763733 33.109333h699.477334a25.8048 25.8048 0 0 0 24.763733-33.109333L783.701333 465.152a25.9584 25.9584 0 0 0-24.763733-18.517333h-24.064l-0.546133-0.546134 1.536-7.611733 0.273066-1.3312v-68.266667h30.020267v-47.291733z" fill="#E8D4AB" p-id="4020"></path><path d="M251.0336 335.240533h519.099733a5.12 5.12 0 0 0 2.577067-9.642666c-24.234667-14.097067-63.146667-43.4176-63.146667-86.340267h-18.773333V218.624H336.4352v20.6336H311.637333c0 42.922667-38.929067 72.2432-63.146666 86.340267a5.12 5.12 0 0 0 2.542933 9.642666z" fill="#AF3131" p-id="4021"></path><path d="M690.824533 218.624v20.6336h18.773334c0 42.922667 38.929067 72.2432 63.146666 86.340267a5.12 5.12 0 0 1-2.577066 9.642666H251.0336a5.12 5.12 0 0 1-2.577067-9.642666c24.234667-14.097067 63.146667-43.4176 63.146667-86.340267h24.814933V218.624h354.4064m13.653334-13.653333H322.781867v20.6336H297.984v13.653333c0 36.317867-35.328 62.293333-56.32 74.5472a18.773333 18.773333 0 0 0 9.437867 35.089067h519.031466a18.773333 18.773333 0 0 0 9.437867-35.089067c-21.060267-12.253867-56.32-38.212267-56.32-74.5472v-13.653333h-18.773333V204.970667z" fill="#E8D4AB" p-id="4022"></path><path d="M301.704533 340.258133h420.778667v110.472534H301.704533z" fill="#AF3131" p-id="4023"></path><path d="M770.594133 469.009067a12.151467 12.151467 0 0 0-11.656533-8.721067H248.0128a12.151467 12.151467 0 0 0-11.656533 8.721067L142.062933 788.872533a12.151467 12.151467 0 0 0 11.656534 15.598934h699.4944a12.151467 12.151467 0 0 0 11.656533-15.598934z" fill="#D5382E" p-id="4024"></path><path d="M740.8128 446.2592l-14.301867-10.478933h-89.6512v-24.507734h-22.9376v24.507734h-89.668266v-24.507734h-22.920534v24.507734h-89.668266v-24.507734h-22.9376v24.507734h-89.6512v-24.507734h-19.6096l-1.058134 49.015467H749.448533l-8.635733-14.0288z" fill="#E8D4AB" p-id="4025"></path><path d="M274.756267 335.240533h477.730133v20.0192H274.756267z" fill="#631B1B" p-id="4026"></path><path d="M336.4352 218.624h354.389333v29.866667H336.4352z" fill="#FF4743" p-id="4027"></path><path d="M709.546667 239.2576H311.637333c0 42.922667-38.929067 72.2432-63.146666 86.340267a5.12 5.12 0 0 0 2.577066 9.642666h519.0656a5.12 5.12 0 0 0 2.577067-9.642666c-24.234667-14.097067-63.163733-43.4176-63.163733-86.340267z" fill="#D5382E" p-id="4028"></path><path d="M461.960533 804.334933V645.12a49.8688 49.8688 0 0 1 49.8688-49.8688A49.8688 49.8688 0 0 1 561.681067 645.12v159.2832" fill="#631B1B" p-id="4029"></path></svg>