<?xml version="1.0" standalone="no"?><!DOCTYPE svg PUBLIC "-//W3C//DTD SVG 1.1//EN" "http://www.w3.org/Graphics/SVG/1.1/DTD/svg11.dtd"><svg t="1554090112557" class="icon" style="" viewBox="0 0 1024 1024" version="1.1" xmlns="http://www.w3.org/2000/svg" p-id="4893" xmlns:xlink="http://www.w3.org/1999/xlink" width="200" height="200"><defs><style type="text/css"></style></defs><path d="M643.9 201.2h-0.5c-3.3-29-23.1-51.4-47.3-51.4H427.3c-24.1 0-43.9 22.4-47.3 51.4h-0.7v195.1h0.2v53.6c0 1-0.2 1.9-0.2 2.8v370.1h0.7c3.3 29 23.1 51.4 47.3 51.4h168.9c24.1 0 43.9-22.4 47.3-51.4h0.5v-4.4h0.2V392.8h-0.2v-49c0-0.9 0.2-1.7 0.2-2.6V209.7c0-0.9-0.2-1.7-0.2-2.6v-5.9z m-197.8 36.5h131.2v334.2H446.1V237.7z m101.4 549.8c-22.1 12.8-49.5 12.8-71.6 0-22.2-12.8-35.9-36.5-35.9-62.2 0-25.7 13.6-49.4 35.9-62.2 22.2-12.8 49.5-12.8 71.6 0 22.2 12.8 35.9 36.6 35.9 62.2 0 25.7-13.6 49.4-35.9 62.2z m248.8-91.2c-10.3-6-23.1-6-33.4 0-10.4 6-16.7 17-16.7 29s6.3 23 16.7 29c10.3 6 23.1 6 33.4 0 10.4-6 16.7-17 16.7-29 0.1-12-6.3-23.1-16.7-29z m-267.9 0c-10.3-6-23.1-6-33.4 0-10.3 6-16.7 17-16.7 29 0 18.5 15 33.5 33.4 33.5 18.5 0 33.4-15 33.4-33.5 0.1-12-6.3-23.1-16.7-29zM912 341.2V209.7c0-0.9-0.2-1.7-0.2-2.6v-5.9h-0.5c-3.4-29-23.1-51.4-47.3-51.4H695.1c-24.1 0-43.9 22.4-47.2 51.4h-0.7v195.1h0.2v53.6c0 1-0.2 1.9-0.2 2.8v370.1h0.7c3.3 29 23.1 51.4 47.2 51.4H864c24.1 0 43.9-22.4 47.3-51.4h0.5v-4.4h0.2V392.8h-0.2v-49c0-0.9 0.2-1.7 0.2-2.6zM714 237.7h131.2v334.2H714V237.7z m101.5 549.8a71.739 71.739 0 0 1-71.7 0c-22.2-12.8-35.8-36.6-35.8-62.3 0-25.7 13.6-49.4 35.8-62.2 22.2-12.8 49.5-12.8 71.7 0 22.2 12.8 35.9 36.6 35.9 62.2-0.1 25.8-13.8 49.5-35.9 62.3zM244.4 692c-18.4 0-33.2 14.9-33.2 33.3s14.9 33.3 33.2 33.3c18.3 0 33.2-14.9 33.2-33.3S262.7 692 244.4 692z m132.1-490.8h-0.5c-3.3-29-23.1-51.4-47.2-51.4H159.9c-24.2 0-43.9 22.4-47.3 51.4h-0.6v195.1h0.2v53.6c0 1-0.2 1.9-0.2 2.8v370.1h0.7c3.4 29 23.1 51.4 47.3 51.4h168.9c24.2 0 43.9-22.4 47.2-51.4h0.5v-4.4h0.2V392.8h-0.2v-49c0-0.9 0.2-1.7 0.2-2.6V209.7c0-0.9-0.2-1.7-0.2-2.6v-5.9z m-197.7 36.5H310v334.2H178.8V237.7z m65.6 559.4c-39.6 0-71.7-32.1-71.7-71.8 0-39.7 32.1-71.8 71.7-71.8s71.6 32.2 71.6 71.8c0.1 39.7-32 71.8-71.6 71.8z" p-id="4894"></path></svg>