<?xml version="1.0" standalone="no"?><!DOCTYPE svg PUBLIC "-//W3C//DTD SVG 1.1//EN" "http://www.w3.org/Graphics/SVG/1.1/DTD/svg11.dtd"><svg t="1554090215735" class="icon" style="" viewBox="0 0 1024 1024" version="1.1" xmlns="http://www.w3.org/2000/svg" p-id="6353" xmlns:xlink="http://www.w3.org/1999/xlink" width="200" height="200"><defs><style type="text/css"></style></defs><path d="M350.392743 296.552327l574.527129 0c19.781623 0 35.950949-16.169326 35.950949-35.950949 0-19.781623-15.997312-35.950949-35.950949-35.950949l-574.527129 0c-19.781623 0-35.950949 16.169326-35.950949 35.950949C314.441794 280.383 330.61112 296.552327 350.392743 296.552327z" p-id="6354"></path><path d="M924.919872 476.135058l-574.527129 0c-19.781623 0-35.950949 16.169326-35.950949 35.950949 0 19.781623 16.169326 35.950949 35.950949 35.950949l574.527129 0c19.781623 0 35.950949-16.169326 35.950949-35.950949C960.870821 492.304384 944.701495 476.135058 924.919872 476.135058z" p-id="6355"></path><path d="M924.919872 727.447673l-574.527129 0c-19.781623 0-35.950949 15.997312-35.950949 35.950949s16.169326 35.950949 35.950949 35.950949l574.527129 0c19.781623 0 35.950949-15.997312 35.950949-35.950949S944.701495 727.447673 924.919872 727.447673z" p-id="6356"></path><path d="M63.129179 260.601377c0 39.73526 32.166639 71.901898 71.901898 71.901898s71.901898-32.166639 71.901898-71.901898-32.166639-71.901898-71.901898-71.901898S63.129179 221.038132 63.129179 260.601377z" p-id="6357"></path><path d="M63.129179 511.913993c0 39.73526 32.166639 71.901898 71.901898 71.901898s71.901898-32.166639 71.901898-71.901898c0-39.73526-32.166639-71.901898-71.901898-71.901898S63.129179 472.350748 63.129179 511.913993z" p-id="6358"></path><path d="M63.129179 763.398623c0 39.73526 32.166639 71.901898 71.901898 71.901898s71.901898-32.166639 71.901898-71.901898c0-39.73526-32.166639-71.901898-71.901898-71.901898S63.129179 723.663363 63.129179 763.398623z" p-id="6359"></path></svg>