<?xml version="1.0" standalone="no"?><!DOCTYPE svg PUBLIC "-//W3C//DTD SVG 1.1//EN" "http://www.w3.org/Graphics/SVG/1.1/DTD/svg11.dtd"><svg t="1550718832980" class="icon" style="" viewBox="0 0 1024 1024" version="1.1" xmlns="http://www.w3.org/2000/svg" p-id="8013" xmlns:xlink="http://www.w3.org/1999/xlink" width="200" height="200"><defs><style type="text/css"></style></defs><path d="M928.5 999.5h-832c-13.3 0-24-10.7-24-24v-704c0-13.3 10.7-24 24-24h832c13.3 0 24 10.7 24 24v704c0 13.3-10.7 24-24 24z m-808-48h784v-656h-784v656z" fill="#515151" p-id="8014"></path><path d="M800.5 183.5h-576c-13.3 0-24-10.7-24-24s10.7-24 24-24h576c13.3 0 24 10.7 24 24s-10.7 24-24 24zM672.5 71.5h-320c-13.3 0-24-10.7-24-24s10.7-24 24-24h320c13.3 0 24 10.7 24 24s-10.7 24-24 24z" fill="#515151" p-id="8015"></path><path d="M688.5 583.5h-352c-13.3 0-24-10.7-24-24v-96c0-13.3 10.7-24 24-24s24 10.7 24 24v72h304v-72c0-13.3 10.7-24 24-24s24 10.7 24 24v96c0 13.3-10.7 24-24 24z" fill="#515151" p-id="8016"></path></svg>