<?xml version="1.0" standalone="no"?><!DOCTYPE svg PUBLIC "-//W3C//DTD SVG 1.1//EN" "http://www.w3.org/Graphics/SVG/1.1/DTD/svg11.dtd"><svg t="1554089888269" class="icon" style="" viewBox="0 0 1024 1024" version="1.1" xmlns="http://www.w3.org/2000/svg" p-id="3316" xmlns:xlink="http://www.w3.org/1999/xlink" width="200" height="200"><defs><style type="text/css"></style></defs><path d="M512 0C229.627709 0 0 229.627709 0 512S229.627709 1024 512 1024 1024 794.372291 1024 512 794.372291 0 512 0z m0 996.655196c-267.269721 0-484.655196-217.385475-484.655196-484.655196s217.385475-484.655196 484.655196-484.655196 484.655196 217.385475 484.655196 484.655196-217.385475 484.655196-484.655196 484.655196zM371.843575 263.608492h-113.4981c-20.594413 0-37.413184 16.704358-37.413184 37.413184v421.956648c0 20.594413 16.704358 37.413184 37.413184 37.413184H371.843575c20.594413 0 37.413184-16.704358 37.413185-37.413184V301.021676c-0.114413-20.594413-16.818771-37.413184-37.413185-37.413184z m-3.661229 455.823016h-106.290055V304.568492h106.290055v414.863016z m-80.661452-325.162905h55.032849c11.326927 0 20.48-9.153073 20.48-20.48s-9.153073-20.48-20.48-20.48h-55.032849c-11.326927 0-20.48 9.153073-20.48 20.48s9.153073 20.48 20.48 20.48z m0 63.957095h55.032849c11.326927 0 20.48-9.153073 20.48-20.48s-9.153073-20.48-20.48-20.48h-55.032849c-11.326927 0-20.48 9.153073-20.48 20.48s9.153073 20.48 20.48 20.48z m0 63.957095h55.032849c11.326927 0 20.48-9.153073 20.48-20.48s-9.153073-20.48-20.48-20.48h-55.032849c-11.326927 0-20.48 9.153073-20.48 20.48s9.153073 20.48 20.48 20.48z m281.228156-258.574301h-113.4981c-20.594413 0-37.413184 16.704358-37.413185 37.413184v421.956648c0 20.594413 16.704358 37.413184 37.413185 37.413184h113.4981c20.594413 0 37.413184-16.704358 37.413185-37.413184V301.021676c0-20.594413-16.818771-37.413184-37.413185-37.413184zM565.202235 719.431508h-106.40447V304.568492h106.40447v414.863016z m-80.661453-325.162905h55.032849c11.326927 0 20.48-9.153073 20.48-20.48s-9.153073-20.48-20.48-20.48h-55.032849c-11.326927 0-20.48 9.153073-20.48 20.48s9.153073 20.48 20.48 20.48z m0 63.957095h55.032849c11.326927 0 20.48-9.153073 20.48-20.48s-9.153073-20.48-20.48-20.48h-55.032849c-11.326927 0-20.48 9.153073-20.48 20.48s9.153073 20.48 20.48 20.48z m0 63.957095h55.032849c11.326927 0 20.48-9.153073 20.48-20.48s-9.153073-20.48-20.48-20.48h-55.032849c-11.326927 0-20.48 9.153073-20.48 20.48s9.153073 20.48 20.48 20.48z m281.228157-258.574301H652.156425c-20.594413 0-37.413184 16.704358-37.413185 37.413184v421.956648c0 20.594413 16.704358 37.413184 37.413185 37.413184h113.4981c20.594413 0 37.413184-16.704358 37.413184-37.413184V301.021676c0-20.594413-16.704358-37.413184-37.29877-37.413184z m-3.66123 455.823016h-106.290055V304.568492h106.290055v414.863016z m-80.661452-325.162905h55.032849c11.326927 0 20.48-9.153073 20.48-20.48s-9.153073-20.48-20.48-20.48h-55.032849c-11.326927 0-20.48 9.153073-20.48 20.48s9.153073 20.48 20.48 20.48z m0 63.957095h55.032849c11.326927 0 20.48-9.153073 20.48-20.48s-9.153073-20.48-20.48-20.48h-55.032849c-11.326927 0-20.48 9.153073-20.48 20.48s9.153073 20.48 20.48 20.48z m0 63.957095h55.032849c11.326927 0 20.48-9.153073 20.48-20.48s-9.153073-20.48-20.48-20.48h-55.032849c-11.326927 0-20.48 9.153073-20.48 20.48s9.153073 20.48 20.48 20.48z" fill="#515151" p-id="3317"></path></svg>