<?xml version="1.0" standalone="no"?><!DOCTYPE svg PUBLIC "-//W3C//DTD SVG 1.1//EN" "http://www.w3.org/Graphics/SVG/1.1/DTD/svg11.dtd"><svg t="1550720022114" class="icon" style="" viewBox="0 0 1024 1024" version="1.1" xmlns="http://www.w3.org/2000/svg" p-id="15029" xmlns:xlink="http://www.w3.org/1999/xlink" width="200" height="200"><defs><style type="text/css"></style></defs><path d="M512 1024c-281.6 0-512-230.4-512-512s230.4-512 512-512 512 230.4 512 512S793.6 1024 512 1024zM512 32C249.6 32 32 249.6 32 512s217.6 480 480 480 480-217.6 480-480S774.4 32 512 32z" p-id="15030"></path><path d="M313.6 505.6 640 505.6 640 467.2 313.6 467.2 313.6 505.6zM313.6 576 640 576 640 537.6 313.6 537.6 313.6 576zM313.6 358.4 640 358.4 640 320 313.6 320 313.6 358.4zM313.6 428.8 640 428.8 640 396.8 313.6 396.8 313.6 428.8zM755.2 460.8l-25.6 38.4L729.6 300.8c0-38.4-32-70.4-70.4-70.4L294.4 230.4C256 230.4 224 262.4 224 300.8l0 416c0 38.4 32 70.4 70.4 70.4l364.8 0c38.4 0 70.4-32 70.4-70.4l0-128 70.4-96L755.2 460.8zM691.2 550.4 640 627.2 640 614.4 313.6 614.4l0 38.4 307.2 0-12.8 19.2 44.8 32 44.8-57.6 0 76.8c0 19.2-19.2 38.4-38.4 38.4L294.4 761.6c-19.2 0-38.4-19.2-38.4-38.4L256 300.8c0-19.2 19.2-38.4 38.4-38.4l364.8 0c19.2 0 38.4 19.2 38.4 38.4L697.6 550.4zM595.2 684.8l-6.4 51.2 51.2-25.6L595.2 684.8z" p-id="15031"></path></svg>