<?xml version="1.0" standalone="no"?><!DOCTYPE svg PUBLIC "-//W3C//DTD SVG 1.1//EN" "http://www.w3.org/Graphics/SVG/1.1/DTD/svg11.dtd"><svg t="1550720011399" class="icon" style="" viewBox="0 0 1024 1024" version="1.1" xmlns="http://www.w3.org/2000/svg" p-id="14898" xmlns:xlink="http://www.w3.org/1999/xlink" width="200" height="200"><defs><style type="text/css"></style></defs><path d="M524.491 200.893l238.996 195.911a30.001 30.001 0 0 0 42.22-4.183l37.548-45.805c18.627-22.723 27.29-51.34 24.394-80.58-2.896-29.239-17.006-55.6-39.729-74.227L712.663 97.531C693.05 81.454 668.301 72.6 642.975 72.6c-33.116 0-64.14 14.677-85.117 40.267l-37.549 45.806a30 30 0 0 0 4.182 42.22z m79.769-49.988c9.536-11.633 23.646-18.305 38.715-18.305 11.661 0 22.606 3.919 31.651 11.333l115.256 94.479c10.329 8.467 16.742 20.449 18.06 33.74 1.316 13.29-2.622 26.297-11.089 36.626l-18.529 22.605-192.595-157.874 18.531-22.604zM877.574 891.14l-549.246-0.146 77.196-19.465a30.003 30.003 0 0 0 15.866-10.071l316.484-386.085a30.002 30.002 0 0 0-4.183-42.22L494.696 237.242a30.004 30.004 0 0 0-42.22 4.182L135.992 627.51a29.996 29.996 0 0 0-6.762 17.533L116.373 904.46a29.98 29.98 0 0 0 0.916 8.96 29.997 29.997 0 0 0-0.952 7.517c-0.004 16.568 13.423 30.004 29.992 30.008l731.23 0.194h0.008c16.564 0 29.995-13.427 30-29.992 0.004-16.568-13.424-30.002-29.993-30.007zM188.667 657.896L479.86 302.663l192.593 157.874L381.26 815.769l-202.954 51.177 10.361-209.05z" fill="" p-id="14899"></path></svg>