<?xml version="1.0" standalone="no"?><!DOCTYPE svg PUBLIC "-//W3C//DTD SVG 1.1//EN" "http://www.w3.org/Graphics/SVG/1.1/DTD/svg11.dtd"><svg t="1553820881968" class="icon" style="" viewBox="0 0 1024 1024" version="1.1" xmlns="http://www.w3.org/2000/svg" p-id="4060" xmlns:xlink="http://www.w3.org/1999/xlink" width="200" height="200"><defs><style type="text/css"></style></defs><path d="M936.741146 462.413652c-0.412392-14.641465-3.319605-25.442462-13.707187-40.293705-1.973958-3.010567-319.019801-341.836459-319.019801-341.836459-22.017456-23.469528-51.064003-34.71157-80.242556-34.738176L523.771603 45.311998c-0.418532-0.025583-0.938372 0.130983-1.457188 0.130983s-1.037632-0.156566-1.557472-0.130983l0 0.233314c-29.076222 0.025583-58.151421 11.268648-80.272231 34.738176 0 0-316.939419 338.825892-318.912353 341.836459-10.384511 14.851243-13.291724 25.65224-13.70821 40.293705 0 0 0 5.088902 0 5.504364 0 46.210461 37.488823 83.755566 83.70133 83.755566l20.041452 0 0 300.375162c0 48.91199 43.925419 88.529289 98.032734 88.529289 54.105269 0 97.927333-39.616276 97.927333-88.529289L407.566998 551.672558l113.190969 0 3.01466 0 113.162316 0 0 300.375162c0 48.91199 43.929512 88.529289 98.03478 88.529289s97.924263-39.616276 97.924263-88.529289L832.893986 551.672558l20.045545 0c46.314839 0 83.802638-37.543058 83.802638-83.755566 0-0.416486-0.102331-0.830925-0.102331-1.245364L936.741146 462.413652zM811.918255 159.621441l0.520863 0.649799 63.035662 66.618257c8.930393 9.397021 23.679305 9.813506 33.023114 0.933255 0.103354-0.051165 0.103354-0.155543 0.314155-0.258896l0.827855-0.778736c2.802836-2.90619 4.466732-5.502317 5.506411-10.488889 0.206708-0.934279 0.310062-1.973958 0.411369-2.959402 0.207731-1.090844 0.414439-2.128477 0.51984-3.428076l7.272637-123.629715c0.518816-9.009188-2.804882-17.029862-8.306176-22.949688l0-0.052189c-0.107447-0.077771-0.211824-0.181125-0.316202-0.258896-0.104377-0.104377-0.205685-0.207731-0.312108-0.338714l0 0.025583c-5.605671-5.865591-13.397125-9.605775-22.428825-9.578146l-123.889635 0.311085c-1.348718 0.052189-2.284019 0.130983-3.427052 0.234337-1.041726 0.076748-1.977028 0.104377-2.908236 0.284479-5.088902 0.75213-7.788383 2.232854-10.905374 4.958942l-0.831948 0.831948c0 0.051165-0.207731 0.128937-0.207731 0.181125-9.340739 8.905834-9.762341 23.651676-0.936325 33.04972L811.918255 159.621441z" p-id="4061"></path></svg>