<?xml version="1.0" standalone="no"?><!DOCTYPE svg PUBLIC "-//W3C//DTD SVG 1.1//EN" "http://www.w3.org/Graphics/SVG/1.1/DTD/svg11.dtd"><svg t="1551768182133" class="icon" style="" viewBox="0 0 1024 1024" version="1.1" xmlns="http://www.w3.org/2000/svg" p-id="6271" xmlns:xlink="http://www.w3.org/1999/xlink" width="200" height="200"><defs><style type="text/css"></style></defs><path d="M864.1 959.3H159c-17.6 0-32-14.4-32-32s14.4-32 32-32h705.1c17.6 0 32 14.4 32 32s-14.4 32-32 32zM735 511.3H159c-17.6 0-32-14.4-32-32s14.4-32 32-32h576c17.6 0 32 14.4 32 32s-14.4 32-32 32z" p-id="6272"></path><path d="M334.7 937.2c-17.7 0-32-14.3-32-32V318.1c0-38.9 7.8-75.2 23.3-107.8 14.8-31.2 36.2-58.3 63.7-80.8 51.6-42.2 123-65.4 201-65.4 17.7 0 32 14.3 32 32s-14.3 32-32 32c-111.5 0-224 58.7-224 190v587.1c0 17.7-14.4 32-32 32z" p-id="6273"></path></svg>