<?xml version="1.0" standalone="no"?><!DOCTYPE svg PUBLIC "-//W3C//DTD SVG 1.1//EN" "http://www.w3.org/Graphics/SVG/1.1/DTD/svg11.dtd"><svg t="1550718763806" class="icon" style="" viewBox="0 0 1024 1024" version="1.1" xmlns="http://www.w3.org/2000/svg" p-id="2296" xmlns:xlink="http://www.w3.org/1999/xlink" width="200" height="200"><defs><style type="text/css"></style></defs><path d="M522.407 388.118c-74.487 0-135.087 60.599-135.087 135.087 0 74.487 60.6 135.088 135.087 135.088 74.487 0 135.088-60.6 135.088-135.088 0-74.487-60.6-135.087-135.088-135.087zM522.407 596.894c-40.632 0-73.688-33.057-73.688-73.689 0-40.632 33.057-73.688 73.688-73.688 40.632 0 73.689 33.056 73.689 73.688 0 40.632-33.057 73.689-73.689 73.689zM966.963 492.506h-32.841c-3.281-44.887-13.78-88.493-31.337-130.004-20.795-49.164-50.556-93.31-88.461-131.214-37.903-37.904-82.051-67.666-131.214-88.461-41.555-17.576-85.212-28.077-130.151-31.347v-32.822c0-16.954-13.745-30.699-30.699-30.699s-30.699 13.745-30.699 30.699v32.842c-44.835 3.293-88.391 13.788-129.856 31.326-49.164 20.795-93.311 50.557-131.214 88.461s-67.666 82.051-88.461 131.214c-17.557 41.51-28.056 85.118-31.336 130.004h-33.439c-16.954 0-30.699 13.745-30.699 30.699s13.745 30.699 30.699 30.699h33.439c3.281 44.887 13.779 88.493 31.337 130.003 20.795 49.164 50.557 93.311 88.461 131.215 37.904 37.903 82.051 67.666 131.214 88.461 41.51 17.557 85.117 28.056 130.003 31.337v31.532c0 16.954 13.745 30.699 30.699 30.699s30.699-13.745 30.699-30.699v-31.531c44.887-3.281 88.494-13.78 130.004-31.337 49.164-20.795 93.311-50.557 131.214-88.461 37.904-37.904 67.666-82.052 88.461-131.215 17.557-41.509 28.056-85.117 31.337-130.003h32.841c16.954 0 30.699-13.745 30.699-30.699s-13.746-30.7-30.7-30.7zM553.106 873.284v-71.583c0-16.954-13.745-30.699-30.699-30.699s-30.699 13.745-30.699 30.699v71.583c-169.337-14.726-304.654-150.042-319.379-319.38h74.794c16.954 0 30.699-13.745 30.699-30.699s-13.745-30.699-30.699-30.699h-74.794c14.721-169.289 149.963-304.575 319.232-319.367v69.247c0 16.954 13.745 30.699 30.699 30.699s30.699-13.745 30.699-30.699v-69.274c169.406 14.66 304.796 150.005 319.526 319.393h-75.392c-16.954 0-30.699 13.745-30.699 30.699s13.745 30.699 30.699 30.699h75.392c-14.725 169.338-150.040 304.656-319.379 319.38z" p-id="2297"></path></svg>