<?xml version="1.0" standalone="no"?><!DOCTYPE svg PUBLIC "-//W3C//DTD SVG 1.1//EN" "http://www.w3.org/Graphics/SVG/1.1/DTD/svg11.dtd"><svg t="1550719892035" class="icon" style="" viewBox="0 0 1397 1024" version="1.1" xmlns="http://www.w3.org/2000/svg" p-id="13361" xmlns:xlink="http://www.w3.org/1999/xlink" width="272.8515625" height="200"><defs><style type="text/css"></style></defs><path d="M1305.693091 1024 90.670545 1024C40.401455 1024 0 983.877818 0 933.981091L0 90.018909C0 40.122182 40.401455 0 90.670545 0L1305.693091 0C1355.962182 0 1396.363636 41.239273 1396.363636 91.136L1396.363636 933.981091C1396.363636 983.877818 1355.962182 1024 1305.693091 1024ZM1305.693091 120.366545C1305.693091 103.051636 1291.450182 90.018909 1275.066182 90.018909L121.297455 90.018909C103.796364 90.018909 90.670545 104.168727 90.670545 120.366545L90.670545 904.657455C90.670545 922.065455 104.913455 935.005091 121.297455 935.005091L1275.066182 935.005091C1292.567273 935.005091 1305.693091 920.948364 1305.693091 904.657455L1305.693091 120.366545ZM797.602909 852.619636 600.901818 342.760727 514.606545 569.530182 342.016 569.530182 342.016 484.910545 484.072727 484.910545 600.901818 173.521455 797.602909 683.380364 880.64 484.910545 1053.323636 484.910545 1053.323636 569.530182 939.659636 569.530182 797.602909 852.619636Z" p-id="13362"></path></svg>