<?xml version="1.0" standalone="no"?><!DOCTYPE svg PUBLIC "-//W3C//DTD SVG 1.1//EN" "http://www.w3.org/Graphics/SVG/1.1/DTD/svg11.dtd"><svg t="1550718513719" class="icon" style="" viewBox="0 0 1024 1024" version="1.1" xmlns="http://www.w3.org/2000/svg" p-id="7837" xmlns:xlink="http://www.w3.org/1999/xlink" width="200" height="200"><defs><style type="text/css"></style></defs><path d="M916.04992 379.1616l0 0.09728c-89.44128-52.41344-118.33344-171.74528-64.64-266.59328L683.88864 14.42304c-16.384 29.312-40.16128 54.88128-70.36928 73.24672-91.10016 55.39328-206.40256 24.77056-257.47456-68.41344l-170.46528 103.68c16 28.60544 24.92928 62.08 24.35072 97.95072-1.56672 107.776-87.808 196.54144-192.67072 198.36928l-3.00544 201.94816c32.32256-0.73728 64.92672 7.10656 94.62272 24.51456 89.28256 52.352 118.24128 171.36128 64.86016 266.112l167.552 98.21184c16.384-29.12256 40.064-54.46656 70.144-72.77056 90.81344-55.22944 205.63456-24.96 256.93184 67.52256l170.496-103.68c-15.68256-28.44672-24.38656-61.56288-23.90528-97.08544 1.63328-107.58656 87.55712-196.29056 192.19456-198.36928l3.00544-201.92256C978.06336 404.37248 945.5872 396.53376 916.04992 379.1616zM615.43936 691.52768l0-0.03584c-98.85184 57.22112-225.18272 23.33184-282.20928-75.67872-57.02656-99.00544-23.07072-225.62816 75.74528-282.84416 98.84672-57.216 225.18272-23.36256 282.20416 75.648C748.20608 507.62752 714.25536 634.28096 615.43936 691.52768z" p-id="7838"></path></svg>