<?xml version="1.0" standalone="no"?><!DOCTYPE svg PUBLIC "-//W3C//DTD SVG 1.1//EN" "http://www.w3.org/Graphics/SVG/1.1/DTD/svg11.dtd"><svg t="1550719973771" class="icon" style="" viewBox="0 0 1024 1024" version="1.1" xmlns="http://www.w3.org/2000/svg" p-id="14619" xmlns:xlink="http://www.w3.org/1999/xlink" width="200" height="200"><defs><style type="text/css"></style></defs><path d="M725.333333 718.933333a42.666667 42.666667 0 0 1-30.293333-12.8l-426.666667-426.666666a42.666667 42.666667 0 0 1 0-60.16l128-128a42.666667 42.666667 0 0 1 60.586667 0l512 512a42.666667 42.666667 0 0 1 10.666667 42.666666 42.666667 42.666667 0 0 1-32.426667 29.866667l-213.333333 42.666667z m-366.506666-469.333333l380.586666 380.16 113.92-22.613333-426.666666-426.666667zM597.333333 804.266667a42.666667 42.666667 0 0 1-30.293333-12.8l-426.666667-426.666667a42.666667 42.666667 0 0 1 0-60.16 42.666667 42.666667 0 0 1 60.586667 0l426.666667 426.666667a42.666667 42.666667 0 0 1-30.293334 72.96zM128 1017.6a42.666667 42.666667 0 0 1-42.666667-42.666667v-469.333333a42.666667 42.666667 0 0 1 85.333334 0v469.333333a42.666667 42.666667 0 0 1-42.666667 42.666667z" p-id="14620"></path><path d="M256 765.44H128a42.666667 42.666667 0 0 1 0-85.333333h110.506667l32-32.426667a42.666667 42.666667 0 0 1 60.16 0 42.666667 42.666667 0 0 1 0 60.586667l-42.666667 42.666666a42.666667 42.666667 0 0 1-32 14.506667z" p-id="14621"></path></svg>