<?xml version="1.0" standalone="no"?><!DOCTYPE svg PUBLIC "-//W3C//DTD SVG 1.1//EN" "http://www.w3.org/Graphics/SVG/1.1/DTD/svg11.dtd"><svg t="1550719927794" class="icon" style="" viewBox="0 0 1024 1024" version="1.1" xmlns="http://www.w3.org/2000/svg" p-id="14217" xmlns:xlink="http://www.w3.org/1999/xlink" width="200" height="200"><defs><style type="text/css"></style></defs><path d="M658.103 735.569c0 26.458-20.723 47.99-46.187 47.99h-492.66c-25.464 0-46.187-21.532-46.187-47.99V319.647c0-26.459 20.723-47.99 46.187-47.99h492.66c25.464 0 46.187 21.531 46.187 47.99V735.57z m206.611-420.756l-133.483 86.308v252.926l132.582 85.64c1.423 1.227 9.153 7.307 21.183 7.307 16.026 0 29.058-13.915 29.058-31.025V339.245c0-17.11-13.033-31.024-29.058-31.024-12.03 0-19.759 6.08-20.282 6.592z" p-id="14218"></path></svg>