<?xml version="1.0" standalone="no"?><!DOCTYPE svg PUBLIC "-//W3C//DTD SVG 1.1//EN" "http://www.w3.org/Graphics/SVG/1.1/DTD/svg11.dtd"><svg t="1554089319181" class="icon" style="" viewBox="0 0 1024 1024" version="1.1" xmlns="http://www.w3.org/2000/svg" p-id="1215" xmlns:xlink="http://www.w3.org/1999/xlink" width="200" height="200"><defs><style type="text/css"></style></defs><path d="M485.376 931.84c-231.424 0-419.84-188.416-419.84-419.84s188.416-419.84 419.84-419.84c197.632 0 370.688 140.288 410.624 333.824 2.048 11.264 4.096 23.552 6.144 34.816 2.048 16.384-10.24 31.744-26.624 33.792-16.384 2.048-31.744-10.24-33.792-26.624-1.024-10.24-3.072-20.48-5.12-29.696-34.816-165.888-182.272-286.72-352.256-286.72-197.632 1.024-358.4 161.792-358.4 360.448S286.72 871.424 485.376 871.424c177.152 0 329.728-132.096 355.328-306.176 2.048-16.384 17.408-27.648 33.792-25.6 16.384 2.048 27.648 17.408 25.6 33.792C870.4 778.24 691.2 931.84 485.376 931.84z" p-id="1216"></path><path d="M95.232 758.784c-45.056 0-70.656-12.288-80.896-36.864-19.456-45.056 34.816-94.208 77.824-126.976 13.312-10.24 31.744-8.192 41.984 5.12 10.24 13.312 8.192 31.744-5.12 41.984-36.864 28.672-51.2 46.08-56.32 55.296 39.936 10.24 202.752-16.384 464.896-130.048 262.144-113.664 393.216-215.04 412.672-250.88-12.288-3.072-47.104-5.12-131.072 14.336-16.384 4.096-32.768-6.144-35.84-22.528-4.096-16.384 6.144-32.768 22.528-35.84 122.88-28.672 185.344-22.528 203.776 18.432 17.408 40.96-19.456 90.112-121.856 158.72-82.944 56.32-198.656 117.76-325.632 173.056-126.976 55.296-250.88 98.304-349.184 119.808-48.128 11.264-87.04 16.384-117.76 16.384z" p-id="1217"></path></svg>