<?xml version="1.0" standalone="no"?><!DOCTYPE svg PUBLIC "-//W3C//DTD SVG 1.1//EN" "http://www.w3.org/Graphics/SVG/1.1/DTD/svg11.dtd"><svg t="1551767880473" class="icon" style="" viewBox="0 0 1024 1024" version="1.1" xmlns="http://www.w3.org/2000/svg" p-id="2492" xmlns:xlink="http://www.w3.org/1999/xlink" width="200" height="200"><defs><style type="text/css"></style></defs><path d="M747.296 708.384a96 96 0 0 1-134.656 135.04 253.6 253.6 0 0 1-283.904-58.24c-101.12-104.96-92.8-260.128 0-381.696 47.68-62.72 110.688-146.88 153.568-197.76a37.12 37.12 0 0 1 28.48-13.408l0.64-0.32c10.912 0.256 21.216 5.28 28.16 13.76 42.208 49.92 106.816 133.76 156.736 197.728 70.016 90.176 92.288 207.744 50.976 304.896z m-55.968-34.496c27.616-77.216 2.656-167.616-46.208-231.36l-2.56-3.52c-41.92-54.4-92.768-120-131.808-167.68v0.32c-31.68 39.04-70.048 89.6-104.608 135.04l-26.88 35.52c-77.408 101.088-79.328 221.056-4.8 298.496a189.696 189.696 0 0 0 203.616 47.2 96 96 0 0 1 113.248-114.048z m-83.392-33.984a32 32 0 1 1 0-64 32 32 0 0 1 0 64z m-96-127.968a32 32 0 1 1 0-64 32 32 0 0 1 0 64z m-64 192a64 64 0 1 1 0-128 64 64 0 0 1 0 128z" p-id="2493" fill="#1296db"></path></svg>