<?xml version="1.0" standalone="no"?><!DOCTYPE svg PUBLIC "-//W3C//DTD SVG 1.1//EN" "http://www.w3.org/Graphics/SVG/1.1/DTD/svg11.dtd"><svg t="1553738395210" class="icon" style="" viewBox="0 0 1024 1024" version="1.1" xmlns="http://www.w3.org/2000/svg" p-id="2892" xmlns:xlink="http://www.w3.org/1999/xlink" width="200" height="200"><defs><style type="text/css"></style></defs><path d="M512 998.4l18.773333 0c34.133333-5.12 58.026667-29.013333 68.266667-58.026667 5.12-10.24 10.24-23.893333 10.24-39.253333L414.72 901.12C414.72 954.026667 459.093333 998.4 512 998.4zM824.32 35.84l-68.266667 68.266667c97.28 68.266667 160.426667 179.2 170.666667 310.613333L1024 414.72C1013.76 259.413333 940.373333 122.88 824.32 35.84zM273.066667 104.106667l-68.266667-68.266667C87.04 122.88 10.24 259.413333 0 414.72l97.28 0C107.52 283.306667 170.666667 172.373333 273.066667 104.106667zM829.44 438.613333c0-150.186667-102.4-273.066667-244.053333-307.2l0-34.133333c0-39.253333-34.133333-73.386667-73.386667-73.386667-39.253333 0-73.386667 34.133333-73.386667 73.386667l0 34.133333c-141.653333 34.133333-244.053333 155.306667-244.053333 307.2l0 267.946667-97.28 97.28 0 47.786667 829.44 0 0-47.786667-97.28-97.28L829.44 438.613333zM238.933333 776.533333l34.133333-32.426667 30.72-116.053333L303.786667 452.266667c0-98.986667 68.266667-196.266667 160.426667-220.16l0-22.186667c0-25.6 22.186667-47.786667 47.786667-47.786667 25.6 0 47.786667 22.186667 47.786667 47.786667l0 22.186667c93.866667 22.186667 160.426667 119.466667 160.426667 220.16l0 177.493333 30.72 116.053333 34.133333 32.426667L238.933333 778.24z" p-id="2893" fill="#d81e06"></path></svg>